Normalized EMG Linear Envelopes
nRows=49
nColumns=17

endheader
time	        VM	        VL	        RF	       GRA	        TA	   ADDLONG	   SEMIMEM	      BFLH	        GM	        GL	       TFL	   GLUTMAX	   GLUTMED	      PIRI	    OBTINT	        QF	
1.78	  0.024212	  0.061204	  0.061331	  0.790870	  0.125403	  0.874108	  0.308507	  0.155154	  0.127392	  0.180667	  0.078289	  0.140980	  0.185979	  0.552040	  0.185733	  0.606662	
1.7805	  0.024209	  0.061505	  0.062123	  0.793271	  0.127409	  0.876105	  0.307913	  0.154211	  0.126085	  0.178685	  0.079576	  0.140643	  0.187227	  0.552204	  0.185820	  0.607029	
1.781	  0.024206	  0.061802	  0.062930	  0.795573	  0.129448	  0.878041	  0.307276	  0.153251	  0.124767	  0.176678	  0.080869	  0.140296	  0.188451	  0.552364	  0.185876	  0.607348	
1.7815	  0.024201	  0.062095	  0.063752	  0.797777	  0.131522	  0.879919	  0.306596	  0.152274	  0.123440	  0.174647	  0.082170	  0.139939	  0.189649	  0.552521	  0.185901	  0.607619	
1.782	  0.024195	  0.062384	  0.064592	  0.799882	  0.133630	  0.881739	  0.305874	  0.151283	  0.122104	  0.172593	  0.083476	  0.139571	  0.190821	  0.552672	  0.185896	  0.607841	
1.7825	  0.024189	  0.062670	  0.065448	  0.801890	  0.135773	  0.883501	  0.305112	  0.150277	  0.120761	  0.170520	  0.084790	  0.139194	  0.191966	  0.552818	  0.185861	  0.608013	
1.783	  0.024181	  0.062951	  0.066321	  0.803798	  0.137951	  0.885206	  0.304310	  0.149258	  0.119411	  0.168428	  0.086109	  0.138806	  0.193082	  0.552956	  0.185797	  0.608136	
1.7835	  0.024172	  0.063228	  0.067212	  0.805607	  0.140165	  0.886854	  0.303470	  0.148225	  0.118056	  0.166319	  0.087434	  0.138409	  0.194170	  0.553086	  0.185704	  0.608207	
1.784	  0.024163	  0.063502	  0.068122	  0.807317	  0.142413	  0.888446	  0.302592	  0.147181	  0.116697	  0.164196	  0.088765	  0.138002	  0.195227	  0.553207	  0.185583	  0.608227	
1.7845	  0.024153	  0.063772	  0.069050	  0.808925	  0.144697	  0.889980	  0.301678	  0.146126	  0.115335	  0.162059	  0.090100	  0.137585	  0.196254	  0.553315	  0.185434	  0.608193	
1.785	  0.024142	  0.064038	  0.069998	  0.810431	  0.147016	  0.891459	  0.300729	  0.145061	  0.113969	  0.159911	  0.091441	  0.137159	  0.197249	  0.553410	  0.185257	  0.608106	
1.7855	  0.024131	  0.064300	  0.070965	  0.811834	  0.149370	  0.892882	  0.299746	  0.143986	  0.112603	  0.157753	  0.092786	  0.136724	  0.198210	  0.553490	  0.185053	  0.607964	
1.786	  0.024118	  0.064559	  0.071953	  0.813133	  0.151760	  0.894248	  0.298730	  0.142901	  0.111235	  0.155587	  0.094135	  0.136279	  0.199138	  0.553552	  0.184822	  0.607765	
1.7865	  0.024105	  0.064813	  0.072961	  0.814326	  0.154185	  0.895558	  0.297681	  0.141809	  0.109868	  0.153413	  0.095488	  0.135826	  0.200031	  0.553594	  0.184564	  0.607509	
1.787	  0.024091	  0.065064	  0.073991	  0.815413	  0.156645	  0.896812	  0.296601	  0.140709	  0.108501	  0.151234	  0.096844	  0.135364	  0.200889	  0.553614	  0.184280	  0.607195	
1.7875	  0.024077	  0.065311	  0.075042	  0.816393	  0.159140	  0.898010	  0.295491	  0.139602	  0.107136	  0.149051	  0.098203	  0.134893	  0.201709	  0.553610	  0.183970	  0.606820	
1.788	  0.024061	  0.065554	  0.076116	  0.817265	  0.161671	  0.899153	  0.294350	  0.138488	  0.105774	  0.146865	  0.099565	  0.134414	  0.202492	  0.553577	  0.183635	  0.606385	
1.7885	  0.024045	  0.065793	  0.077213	  0.818029	  0.164236	  0.900241	  0.293181	  0.137369	  0.104414	  0.144678	  0.100928	  0.133927	  0.203237	  0.553513	  0.183275	  0.605887	
1.789	  0.024029	  0.066028	  0.078333	  0.818685	  0.166835	  0.901275	  0.291983	  0.136244	  0.103059	  0.142491	  0.102294	  0.133432	  0.203943	  0.553416	  0.182890	  0.605326	
1.7895	  0.024011	  0.066259	  0.079477	  0.819233	  0.169469	  0.902257	  0.290757	  0.135114	  0.101707	  0.140305	  0.103661	  0.132929	  0.204608	  0.553282	  0.182480	  0.604699	
1.79	  0.023993	  0.066487	  0.080646	  0.819673	  0.172136	  0.903187	  0.289503	  0.133979	  0.100361	  0.138121	  0.105029	  0.132420	  0.205233	  0.553107	  0.182046	  0.604005	
1.7905	  0.023974	  0.066710	  0.081839	  0.820006	  0.174837	  0.904067	  0.288223	  0.132840	  0.099020	  0.135940	  0.106398	  0.131904	  0.205817	  0.552889	  0.181587	  0.603243	
1.791	  0.023954	  0.066929	  0.083058	  0.820230	  0.177571	  0.904898	  0.286916	  0.131698	  0.097685	  0.133764	  0.107767	  0.131382	  0.206358	  0.552623	  0.181105	  0.602411	
1.7915	  0.023934	  0.067145	  0.084302	  0.820347	  0.180337	  0.905679	  0.285583	  0.130552	  0.096357	  0.131594	  0.109136	  0.130854	  0.206856	  0.552305	  0.180600	  0.601506	
1.792	  0.023913	  0.067356	  0.085573	  0.820357	  0.183136	  0.906413	  0.284224	  0.129404	  0.095036	  0.129430	  0.110505	  0.130320	  0.207310	  0.551933	  0.180071	  0.600529	
1.7925	  0.023891	  0.067563	  0.086872	  0.820261	  0.185966	  0.907100	  0.282840	  0.128253	  0.093722	  0.127274	  0.111872	  0.129782	  0.207719	  0.551502	  0.179519	  0.599478	
1.793	  0.023868	  0.067766	  0.088197	  0.820061	  0.188828	  0.907742	  0.281431	  0.127100	  0.092417	  0.125126	  0.113237	  0.129240	  0.208083	  0.551009	  0.178944	  0.598352	
1.7935	  0.023844	  0.067965	  0.089551	  0.819758	  0.191720	  0.908340	  0.279998	  0.125946	  0.091120	  0.122988	  0.114600	  0.128694	  0.208401	  0.550450	  0.178347	  0.597150	
1.794	  0.023820	  0.068159	  0.090934	  0.819355	  0.194642	  0.908894	  0.278540	  0.124790	  0.089832	  0.120860	  0.115961	  0.128144	  0.208673	  0.549820	  0.177726	  0.595873	
1.7945	  0.023795	  0.068350	  0.092345	  0.818852	  0.197593	  0.909408	  0.277058	  0.123634	  0.088554	  0.118744	  0.117317	  0.127592	  0.208898	  0.549116	  0.177084	  0.594520	
1.795	  0.023769	  0.068536	  0.093787	  0.818251	  0.200573	  0.909880	  0.275552	  0.122477	  0.087285	  0.116639	  0.118670	  0.127037	  0.209076	  0.548334	  0.176419	  0.593093	
1.7955	  0.023742	  0.068718	  0.095258	  0.817556	  0.203581	  0.910313	  0.274022	  0.121320	  0.086026	  0.114547	  0.120018	  0.126481	  0.209208	  0.547470	  0.175731	  0.591594	
1.796	  0.023715	  0.068897	  0.096761	  0.816766	  0.206617	  0.910707	  0.272470	  0.120164	  0.084777	  0.112468	  0.121361	  0.125923	  0.209294	  0.546520	  0.175022	  0.590023	
1.7965	  0.023687	  0.069071	  0.098295	  0.815886	  0.209678	  0.911063	  0.270896	  0.119008	  0.083540	  0.110404	  0.122697	  0.125364	  0.209333	  0.545480	  0.174291	  0.588384	
1.797	  0.023658	  0.069242	  0.099860	  0.814916	  0.212766	  0.911379	  0.269301	  0.117854	  0.082313	  0.108354	  0.124027	  0.124805	  0.209327	  0.544346	  0.173538	  0.586679	
1.7975	  0.023628	  0.069408	  0.101458	  0.813861	  0.215878	  0.911658	  0.267686	  0.116701	  0.081097	  0.106320	  0.125350	  0.124245	  0.209275	  0.543113	  0.172764	  0.584909	
1.798	  0.023598	  0.069571	  0.103088	  0.812722	  0.219013	  0.911898	  0.266051	  0.115549	  0.079893	  0.104302	  0.126665	  0.123686	  0.209178	  0.541777	  0.171969	  0.583078	
1.7985	  0.023567	  0.069731	  0.104751	  0.811503	  0.222172	  0.912098	  0.264397	  0.114400	  0.078700	  0.102301	  0.127971	  0.123127	  0.209035	  0.540334	  0.171154	  0.581185	
1.799	  0.023535	  0.069887	  0.106448	  0.810206	  0.225352	  0.912259	  0.262725	  0.113253	  0.077519	  0.100317	  0.129269	  0.122569	  0.208848	  0.538780	  0.170319	  0.579235	
1.7995	  0.023503	  0.070039	  0.108179	  0.808834	  0.228554	  0.912380	  0.261037	  0.112110	  0.076350	  0.098351	  0.130557	  0.122012	  0.208616	  0.537110	  0.169463	  0.577229	
1.8	  0.023470	  0.070187	  0.109944	  0.807390	  0.231774	  0.912458	  0.259332	  0.110969	  0.075194	  0.096403	  0.131836	  0.121457	  0.208341	  0.535322	  0.168588	  0.575168	
1.8005	  0.023436	  0.070333	  0.111743	  0.805875	  0.235014	  0.912494	  0.257612	  0.109832	  0.074050	  0.094473	  0.133104	  0.120903	  0.208022	  0.533413	  0.167693	  0.573056	
1.801	  0.023402	  0.070474	  0.113577	  0.804292	  0.238270	  0.912485	  0.255879	  0.108699	  0.072918	  0.092563	  0.134361	  0.120351	  0.207661	  0.531381	  0.166780	  0.570894	
1.8015	  0.023367	  0.070612	  0.115446	  0.802643	  0.241543	  0.912430	  0.254132	  0.107570	  0.071799	  0.090673	  0.135607	  0.119801	  0.207257	  0.529226	  0.165848	  0.568685	
1.802	  0.023331	  0.070747	  0.117350	  0.800931	  0.244831	  0.912326	  0.252374	  0.106445	  0.070693	  0.088802	  0.136841	  0.119253	  0.206812	  0.526946	  0.164897	  0.566431	
1.8025	  0.023295	  0.070878	  0.119289	  0.799157	  0.248133	  0.912172	  0.250606	  0.105325	  0.069601	  0.086952	  0.138062	  0.118708	  0.206327	  0.524543	  0.163929	  0.564136	
1.803	  0.023257	  0.071005	  0.121264	  0.797324	  0.251448	  0.911965	  0.248827	  0.104209	  0.068521	  0.085122	  0.139272	  0.118167	  0.205803	  0.522015	  0.162942	  0.561801	
1.8035	  0.023220	  0.071129	  0.123275	  0.795432	  0.254776	  0.911703	  0.247040	  0.103099	  0.067455	  0.083313	  0.140468	  0.117629	  0.205240	  0.519364	  0.161939	  0.559429	
1.804	  0.023181	  0.071249	  0.125322	  0.793484	  0.258114	  0.911384	  0.245245	  0.101994	  0.066402	  0.081526	  0.141651	  0.117095	  0.204640	  0.516591	  0.160918	  0.557025	
